<svg width="1913" height="647" viewBox="0 0 1913 647" fill="none" xmlns="http://www.w3.org/2000/svg">
<path d="M4 407C6.20914 407 8 405.209 8 403C8 400.791 6.20914 399 4 399C1.79086 399 0 400.791 0 403C0 405.209 1.79086 407 4 407Z" fill="#F68C20"/>
<path d="M52 407C54.2091 407 56 405.209 56 403C56 400.791 54.2091 399 52 399C49.7909 399 48 400.791 48 403C48 405.209 49.7909 407 52 407Z" fill="#F68C20"/>
<path d="M100 407C102.209 407 104 405.209 104 403C104 400.791 102.209 399 100 399C97.7909 399 96 400.791 96 403C96 405.209 97.7909 407 100 407Z" fill="#F68C20"/>
<path d="M4 455C6.20914 455 8 453.209 8 451C8 448.791 6.20914 447 4 447C1.79086 447 0 448.791 0 451C0 453.209 1.79086 455 4 455Z" fill="#F68C20"/>
<path d="M52 455C54.2091 455 56 453.209 56 451C56 448.791 54.2091 447 52 447C49.7909 447 48 448.791 48 451C48 453.209 49.7909 455 52 455Z" fill="#F68C20"/>
<path d="M100 455C102.209 455 104 453.209 104 451C104 448.791 102.209 447 100 447C97.7909 447 96 448.791 96 451C96 453.209 97.7909 455 100 455Z" fill="#F68C20"/>
<path d="M4 503C6.20914 503 8 501.209 8 499C8 496.791 6.20914 495 4 495C1.79086 495 0 496.791 0 499C0 501.209 1.79086 503 4 503Z" fill="#F68C20"/>
<path d="M52 503C54.2091 503 56 501.209 56 499C56 496.791 54.2091 495 52 495C49.7909 495 48 496.791 48 499C48 501.209 49.7909 503 52 503Z" fill="#F68C20"/>
<path d="M100 503C102.209 503 104 501.209 104 499C104 496.791 102.209 495 100 495C97.7909 495 96 496.791 96 499C96 501.209 97.7909 503 100 503Z" fill="#F68C20"/>
<path d="M4 551C6.20914 551 8 549.209 8 547C8 544.791 6.20914 543 4 543C1.79086 543 0 544.791 0 547C0 549.209 1.79086 551 4 551Z" fill="#F68C20"/>
<path d="M52 551C54.2091 551 56 549.209 56 547C56 544.791 54.2091 543 52 543C49.7909 543 48 544.791 48 547C48 549.209 49.7909 551 52 551Z" fill="#F68C20"/>
<path d="M100 551C102.209 551 104 549.209 104 547C104 544.791 102.209 543 100 543C97.7909 543 96 544.791 96 547C96 549.209 97.7909 551 100 551Z" fill="#F68C20"/>
<path d="M4 599C6.20914 599 8 597.209 8 595C8 592.791 6.20914 591 4 591C1.79086 591 0 592.791 0 595C0 597.209 1.79086 599 4 599Z" fill="#F68C20"/>
<path d="M52 599C54.2091 599 56 597.209 56 595C56 592.791 54.2091 591 52 591C49.7909 591 48 592.791 48 595C48 597.209 49.7909 599 52 599Z" fill="#F68C20"/>
<path d="M100 599C102.209 599 104 597.209 104 595C104 592.791 102.209 591 100 591C97.7909 591 96 592.791 96 595C96 597.209 97.7909 599 100 599Z" fill="#F68C20"/>
<path d="M4 647C6.20914 647 8 645.209 8 643C8 640.791 6.20914 639 4 639C1.79086 639 0 640.791 0 643C0 645.209 1.79086 647 4 647Z" fill="#F68C20"/>
<path d="M52 647C54.2091 647 56 645.209 56 643C56 640.791 54.2091 639 52 639C49.7909 639 48 640.791 48 643C48 645.209 49.7909 647 52 647Z" fill="#F68C20"/>
<path d="M100 647C102.209 647 104 645.209 104 643C104 640.791 102.209 639 100 639C97.7909 639 96 640.791 96 643C96 645.209 97.7909 647 100 647Z" fill="#F68C20"/>
<path d="M1813 8C1815.21 8 1817 6.20914 1817 4C1817 1.79086 1815.21 0 1813 0C1810.79 0 1809 1.79086 1809 4C1809 6.20914 1810.79 8 1813 8Z" fill="#F68C20"/>
<path d="M1861 8C1863.21 8 1865 6.20914 1865 4C1865 1.79086 1863.21 0 1861 0C1858.79 0 1857 1.79086 1857 4C1857 6.20914 1858.79 8 1861 8Z" fill="#F68C20"/>
<path d="M1909 8C1911.21 8 1913 6.20914 1913 4C1913 1.79086 1911.21 0 1909 0C1906.79 0 1905 1.79086 1905 4C1905 6.20914 1906.79 8 1909 8Z" fill="#F68C20"/>
<path d="M1813 56C1815.21 56 1817 54.2091 1817 52C1817 49.7909 1815.21 48 1813 48C1810.79 48 1809 49.7909 1809 52C1809 54.2091 1810.79 56 1813 56Z" fill="#F68C20"/>
<path d="M1861 56C1863.21 56 1865 54.2091 1865 52C1865 49.7909 1863.21 48 1861 48C1858.79 48 1857 49.7909 1857 52C1857 54.2091 1858.79 56 1861 56Z" fill="#F68C20"/>
<path d="M1909 56C1911.21 56 1913 54.2091 1913 52C1913 49.7909 1911.21 48 1909 48C1906.79 48 1905 49.7909 1905 52C1905 54.2091 1906.79 56 1909 56Z" fill="#F68C20"/>
<path d="M1813 104C1815.21 104 1817 102.209 1817 100C1817 97.7909 1815.21 96 1813 96C1810.79 96 1809 97.7909 1809 100C1809 102.209 1810.79 104 1813 104Z" fill="#F68C20"/>
<path d="M1861 104C1863.21 104 1865 102.209 1865 100C1865 97.7909 1863.21 96 1861 96C1858.79 96 1857 97.7909 1857 100C1857 102.209 1858.79 104 1861 104Z" fill="#F68C20"/>
<path d="M1909 104C1911.21 104 1913 102.209 1913 100C1913 97.7909 1911.21 96 1909 96C1906.79 96 1905 97.7909 1905 100C1905 102.209 1906.79 104 1909 104Z" fill="#F68C20"/>
<path d="M1813 152C1815.21 152 1817 150.209 1817 148C1817 145.791 1815.21 144 1813 144C1810.79 144 1809 145.791 1809 148C1809 150.209 1810.79 152 1813 152Z" fill="#F68C20"/>
<path d="M1861 152C1863.21 152 1865 150.209 1865 148C1865 145.791 1863.21 144 1861 144C1858.79 144 1857 145.791 1857 148C1857 150.209 1858.79 152 1861 152Z" fill="#F68C20"/>
<path d="M1909 152C1911.21 152 1913 150.209 1913 148C1913 145.791 1911.21 144 1909 144C1906.79 144 1905 145.791 1905 148C1905 150.209 1906.79 152 1909 152Z" fill="#F68C20"/>
<path d="M1813 200C1815.21 200 1817 198.209 1817 196C1817 193.791 1815.21 192 1813 192C1810.79 192 1809 193.791 1809 196C1809 198.209 1810.79 200 1813 200Z" fill="#F68C20"/>
<path d="M1861 200C1863.21 200 1865 198.209 1865 196C1865 193.791 1863.21 192 1861 192C1858.79 192 1857 193.791 1857 196C1857 198.209 1858.79 200 1861 200Z" fill="#F68C20"/>
<path d="M1909 200C1911.21 200 1913 198.209 1913 196C1913 193.791 1911.21 192 1909 192C1906.79 192 1905 193.791 1905 196C1905 198.209 1906.79 200 1909 200Z" fill="#F68C20"/>
<path d="M1813 248C1815.21 248 1817 246.209 1817 244C1817 241.791 1815.21 240 1813 240C1810.79 240 1809 241.791 1809 244C1809 246.209 1810.79 248 1813 248Z" fill="#F68C20"/>
<path d="M1861 248C1863.21 248 1865 246.209 1865 244C1865 241.791 1863.21 240 1861 240C1858.79 240 1857 241.791 1857 244C1857 246.209 1858.79 248 1861 248Z" fill="#F68C20"/>
<path d="M1909 248C1911.21 248 1913 246.209 1913 244C1913 241.791 1911.21 240 1909 240C1906.79 240 1905 241.791 1905 244C1905 246.209 1906.79 248 1909 248Z" fill="#F68C20"/>
</svg>
