<svg width="134" height="24" viewBox="0 0 134 24" fill="none" xmlns="http://www.w3.org/2000/svg">
<path d="M17.56 21.0002C17.4001 21.0008 17.2424 20.9631 17.1 20.8902L12 18.2202L6.90003 20.8902C6.73442 20.9773 6.54771 21.0162 6.36111 21.0024C6.17451 20.9887 5.99551 20.9228 5.84446 20.8124C5.69341 20.702 5.57637 20.5514 5.50665 20.3778C5.43692 20.2041 5.4173 20.0144 5.45003 19.8302L6.45003 14.2002L2.33003 10.2002C2.19816 10.071 2.10526 9.90731 2.06193 9.72784C2.0186 9.54837 2.02659 9.36034 2.08497 9.18518C2.14335 9.01003 2.24979 8.85482 2.39213 8.73724C2.53448 8.61966 2.70701 8.54446 2.89003 8.5202L8.59003 7.6902L11.1 2.5602C11.1819 2.39113 11.3098 2.24855 11.4689 2.14878C11.6281 2.04901 11.8122 1.99609 12 1.99609C12.1879 1.99609 12.3719 2.04901 12.5311 2.14878C12.6903 2.24855 12.8181 2.39113 12.9 2.5602L15.44 7.6802L21.14 8.5102C21.3231 8.53446 21.4956 8.60966 21.6379 8.72724C21.7803 8.84482 21.8867 9.00003 21.9451 9.17518C22.0035 9.35034 22.0115 9.53837 21.9681 9.71784C21.9248 9.89731 21.8319 10.061 21.7 10.1902L17.58 14.1902L18.58 19.8202C18.6091 19.9677 18.6041 20.1199 18.5656 20.2652C18.5271 20.4105 18.4559 20.5451 18.3576 20.6588C18.2593 20.7725 18.1364 20.8624 17.9982 20.9215C17.86 20.9807 17.7102 21.0076 17.56 21.0002ZM12 16.1002C12.1603 16.0962 12.3189 16.1341 12.46 16.2102L16.23 18.2102L15.51 14.0002C15.4821 13.8395 15.4939 13.6743 15.5445 13.5192C15.595 13.364 15.6828 13.2236 15.8 13.1102L18.8 10.1802L14.6 9.5602C14.446 9.5292 14.3015 9.46233 14.1781 9.36504C14.0548 9.26775 13.9561 9.14276 13.89 9.0002L12 5.2502L10.11 9.0002C10.0377 9.14391 9.93172 9.26803 9.80115 9.36204C9.67059 9.45605 9.51926 9.51717 9.36003 9.5402L5.16003 10.1602L8.16003 13.0902C8.27731 13.2036 8.36505 13.344 8.4156 13.4992C8.46614 13.6543 8.47797 13.8195 8.45003 13.9802L7.73003 18.1402L11.5 16.1402C11.6598 16.0808 11.8329 16.067 12 16.1002Z" fill="#F68C20"/>
<path d="M45.56 21.0002C45.4001 21.0008 45.2424 20.9631 45.1 20.8902L40 18.2202L34.9 20.8902C34.7344 20.9773 34.5477 21.0162 34.3611 21.0024C34.1745 20.9887 33.9955 20.9228 33.8445 20.8124C33.6934 20.702 33.5764 20.5514 33.5066 20.3778C33.4369 20.2041 33.4173 20.0144 33.45 19.8302L34.45 14.2002L30.33 10.2002C30.1982 10.071 30.1053 9.90731 30.0619 9.72784C30.0186 9.54837 30.0266 9.36034 30.085 9.18518C30.1434 9.01003 30.2498 8.85482 30.3921 8.73724C30.5345 8.61966 30.707 8.54446 30.89 8.5202L36.59 7.6902L39.1 2.5602C39.1819 2.39113 39.3098 2.24855 39.4689 2.14878C39.6281 2.04901 39.8122 1.99609 40 1.99609C40.1879 1.99609 40.3719 2.04901 40.5311 2.14878C40.6903 2.24855 40.8181 2.39113 40.9 2.5602L43.44 7.6802L49.14 8.5102C49.3231 8.53446 49.4956 8.60966 49.6379 8.72724C49.7803 8.84482 49.8867 9.00003 49.9451 9.17518C50.0035 9.35034 50.0115 9.53837 49.9681 9.71784C49.9248 9.89731 49.8319 10.061 49.7 10.1902L45.58 14.1902L46.58 19.8202C46.6091 19.9677 46.6041 20.1199 46.5656 20.2652C46.5271 20.4105 46.4559 20.5451 46.3576 20.6588C46.2593 20.7725 46.1364 20.8624 45.9982 20.9215C45.86 20.9807 45.7102 21.0076 45.56 21.0002ZM40 16.1002C40.1603 16.0962 40.3189 16.1341 40.46 16.2102L44.23 18.2102L43.51 14.0002C43.4821 13.8395 43.4939 13.6743 43.5445 13.5192C43.595 13.364 43.6828 13.2236 43.8 13.1102L46.8 10.1802L42.6 9.5602C42.446 9.5292 42.3015 9.46233 42.1781 9.36504C42.0548 9.26775 41.9561 9.14276 41.89 9.0002L40 5.2502L38.11 9.0002C38.0377 9.14391 37.9317 9.26803 37.8012 9.36204C37.6706 9.45605 37.5193 9.51717 37.36 9.5402L33.16 10.1602L36.16 13.0902C36.2773 13.2036 36.365 13.344 36.4156 13.4992C36.4661 13.6543 36.478 13.8195 36.45 13.9802L35.73 18.1402L39.5 16.1402C39.6598 16.0808 39.8329 16.067 40 16.1002Z" fill="#F68C20"/>
<path d="M72.56 21.0002C72.4001 21.0008 72.2424 20.9631 72.1 20.8902L67 18.2202L61.9 20.8902C61.7344 20.9773 61.5477 21.0162 61.3611 21.0024C61.1745 20.9887 60.9955 20.9228 60.8445 20.8124C60.6934 20.702 60.5764 20.5514 60.5066 20.3778C60.4369 20.2041 60.4173 20.0144 60.45 19.8302L61.45 14.2002L57.33 10.2002C57.1982 10.071 57.1053 9.90731 57.0619 9.72784C57.0186 9.54837 57.0266 9.36034 57.085 9.18518C57.1434 9.01003 57.2498 8.85482 57.3921 8.73724C57.5345 8.61966 57.707 8.54446 57.89 8.5202L63.59 7.6902L66.1 2.5602C66.1819 2.39113 66.3098 2.24855 66.4689 2.14878C66.6281 2.04901 66.8122 1.99609 67 1.99609C67.1879 1.99609 67.3719 2.04901 67.5311 2.14878C67.6903 2.24855 67.8181 2.39113 67.9 2.5602L70.44 7.6802L76.14 8.5102C76.3231 8.53446 76.4956 8.60966 76.6379 8.72724C76.7803 8.84482 76.8867 9.00003 76.9451 9.17518C77.0035 9.35034 77.0115 9.53837 76.9681 9.71784C76.9248 9.89731 76.8319 10.061 76.7 10.1902L72.58 14.1902L73.58 19.8202C73.6091 19.9677 73.6041 20.1199 73.5656 20.2652C73.5271 20.4105 73.4559 20.5451 73.3576 20.6588C73.2593 20.7725 73.1364 20.8624 72.9982 20.9215C72.86 20.9807 72.7102 21.0076 72.56 21.0002ZM67 16.1002C67.1603 16.0962 67.3189 16.1341 67.46 16.2102L71.23 18.2102L70.51 14.0002C70.4821 13.8395 70.4939 13.6743 70.5445 13.5192C70.595 13.364 70.6828 13.2236 70.8 13.1102L73.8 10.1802L69.6 9.5602C69.446 9.5292 69.3015 9.46233 69.1781 9.36504C69.0548 9.26775 68.9561 9.14276 68.89 9.0002L67 5.2502L65.11 9.0002C65.0377 9.14391 64.9317 9.26803 64.8012 9.36204C64.6706 9.45605 64.5193 9.51717 64.36 9.5402L60.16 10.1602L63.16 13.0902C63.2773 13.2036 63.365 13.344 63.4156 13.4992C63.4661 13.6543 63.478 13.8195 63.45 13.9802L62.73 18.1402L66.5 16.1402C66.6598 16.0808 66.8329 16.067 67 16.1002Z" fill="#F68C20"/>
<path d="M100.56 21.0002C100.4 21.0008 100.242 20.9631 100.1 20.8902L95 18.2202L89.9 20.8902C89.7344 20.9773 89.5477 21.0162 89.3611 21.0024C89.1745 20.9887 88.9955 20.9228 88.8445 20.8124C88.6934 20.702 88.5764 20.5514 88.5066 20.3778C88.4369 20.2041 88.4173 20.0144 88.45 19.8302L89.45 14.2002L85.33 10.2002C85.1982 10.071 85.1053 9.90731 85.0619 9.72784C85.0186 9.54837 85.0266 9.36034 85.085 9.18518C85.1434 9.01003 85.2498 8.85482 85.3921 8.73724C85.5345 8.61966 85.707 8.54446 85.89 8.5202L91.59 7.6902L94.1 2.5602C94.1819 2.39113 94.3098 2.24855 94.4689 2.14878C94.6281 2.04901 94.8122 1.99609 95 1.99609C95.1879 1.99609 95.3719 2.04901 95.5311 2.14878C95.6903 2.24855 95.8181 2.39113 95.9 2.5602L98.44 7.6802L104.14 8.5102C104.323 8.53446 104.496 8.60966 104.638 8.72724C104.78 8.84482 104.887 9.00003 104.945 9.17518C105.003 9.35034 105.011 9.53837 104.968 9.71784C104.925 9.89731 104.832 10.061 104.7 10.1902L100.58 14.1902L101.58 19.8202C101.609 19.9677 101.604 20.1199 101.566 20.2652C101.527 20.4105 101.456 20.5451 101.358 20.6588C101.259 20.7725 101.136 20.8624 100.998 20.9215C100.86 20.9807 100.71 21.0076 100.56 21.0002ZM95 16.1002C95.1603 16.0962 95.3189 16.1341 95.46 16.2102L99.23 18.2102L98.51 14.0002C98.4821 13.8395 98.4939 13.6743 98.5445 13.5192C98.595 13.364 98.6828 13.2236 98.8 13.1102L101.8 10.1802L97.6 9.5602C97.446 9.5292 97.3015 9.46233 97.1781 9.36504C97.0548 9.26775 96.9561 9.14276 96.89 9.0002L95 5.2502L93.11 9.0002C93.0377 9.14391 92.9317 9.26803 92.8012 9.36204C92.6706 9.45605 92.5193 9.51717 92.36 9.5402L88.16 10.1602L91.16 13.0902C91.2773 13.2036 91.365 13.344 91.4156 13.4992C91.4661 13.6543 91.478 13.8195 91.45 13.9802L90.73 18.1402L94.5 16.1402C94.6598 16.0808 94.8329 16.067 95 16.1002Z" fill="#F68C20"/>
<path d="M127.56 21.0002C127.4 21.0008 127.242 20.9631 127.1 20.8902L122 18.2202L116.9 20.8902C116.734 20.9773 116.548 21.0162 116.361 21.0024C116.175 20.9887 115.996 20.9228 115.844 20.8124C115.693 20.702 115.576 20.5514 115.507 20.3778C115.437 20.2041 115.417 20.0144 115.45 19.8302L116.45 14.2002L112.33 10.2002C112.198 10.071 112.105 9.90731 112.062 9.72784C112.019 9.54837 112.027 9.36034 112.085 9.18518C112.143 9.01003 112.25 8.85482 112.392 8.73724C112.534 8.61966 112.707 8.54446 112.89 8.5202L118.59 7.6902L121.1 2.5602C121.182 2.39113 121.31 2.24855 121.469 2.14878C121.628 2.04901 121.812 1.99609 122 1.99609C122.188 1.99609 122.372 2.04901 122.531 2.14878C122.69 2.24855 122.818 2.39113 122.9 2.5602L125.44 7.6802L131.14 8.5102C131.323 8.53446 131.496 8.60966 131.638 8.72724C131.78 8.84482 131.887 9.00003 131.945 9.17518C132.003 9.35034 132.011 9.53837 131.968 9.71784C131.925 9.89731 131.832 10.061 131.7 10.1902L127.58 14.1902L128.58 19.8202C128.609 19.9677 128.604 20.1199 128.566 20.2652C128.527 20.4105 128.456 20.5451 128.358 20.6588C128.259 20.7725 128.136 20.8624 127.998 20.9215C127.86 20.9807 127.71 21.0076 127.56 21.0002ZM122 16.1002C122.16 16.0962 122.319 16.1341 122.46 16.2102L126.23 18.2102L125.51 14.0002C125.482 13.8395 125.494 13.6743 125.544 13.5192C125.595 13.364 125.683 13.2236 125.8 13.1102L128.8 10.1802L124.6 9.5602C124.446 9.5292 124.301 9.46233 124.178 9.36504C124.055 9.26775 123.956 9.14276 123.89 9.0002L122 5.2502L120.11 9.0002C120.038 9.14391 119.932 9.26803 119.801 9.36204C119.671 9.45605 119.519 9.51717 119.36 9.5402L115.16 10.1602L118.16 13.0902C118.277 13.2036 118.365 13.344 118.416 13.4992C118.466 13.6543 118.478 13.8195 118.45 13.9802L117.73 18.1402L121.5 16.1402C121.66 16.0808 121.833 16.067 122 16.1002Z" fill="#F68C20"/>
</svg>
