<svg width="35" height="26" viewBox="0 0 35 26" fill="none" xmlns="http://www.w3.org/2000/svg">
<path d="M33.8333 0H1.16669C0.522334 0 0 0.522334 0 1.16662C0 1.81091 0.522334 2.33331 1.16669 2.33331H33.8334C34.4777 2.33331 35.0001 1.81098 35.0001 1.16662C35.0001 0.522266 34.4777 0 33.8333 0Z" fill="#302D3A"/>
<path d="M33.8333 11.666H8.16669C7.52233 11.666 7 12.1883 7 12.8327C7 13.4771 7.52233 13.9994 8.16669 13.9994H33.8334C34.4777 13.9994 35.0001 13.4771 35.0001 12.8327C35.0001 12.1883 34.4777 11.666 33.8333 11.666Z" fill="#302D3A"/>
<path d="M33.8333 23.334H15.1667C14.5223 23.334 14 23.8563 14 24.5007C14 25.145 14.5223 25.6674 15.1667 25.6674H33.8334C34.4777 25.6674 35.0001 25.145 35.0001 24.5007C35.0001 23.8563 34.4777 23.334 33.8333 23.334Z" fill="#302D3A"/>
</svg>
