<svg width="28" height="28" viewBox="0 0 28 28" fill="none" xmlns="http://www.w3.org/2000/svg">
<path d="M20.417 16.3321C20.0755 17.5202 19.3986 18.5847 18.4674 19.3979C17.5362 20.2112 16.3903 20.7386 15.167 20.9171C14.2103 21.0559 13.2355 21 12.301 20.7527C11.3665 20.5054 10.4916 20.0719 9.72887 19.4781C8.9661 18.8843 8.33119 18.1424 7.86226 17.2972C7.39332 16.4519 7.10002 15.5205 6.99997 14.5591C6.9225 13.5938 7.04613 12.623 7.36306 11.708C7.67999 10.793 8.18331 9.9537 8.84121 9.24317C9.4991 8.53264 10.2973 7.96633 11.1852 7.58006C12.0732 7.19379 13.0316 6.99595 14 6.99906C14.9072 7.00027 15.8059 7.17438 16.648 7.51206C16.7806 7.57177 16.9308 7.57974 17.069 7.53441C17.2072 7.48908 17.3235 7.39372 17.395 7.26706L19.075 4.17506C19.1112 4.10384 19.1329 4.02619 19.139 3.94654C19.1451 3.86689 19.1355 3.78683 19.1106 3.71093C19.0857 3.63503 19.046 3.56479 18.9939 3.50423C18.9418 3.44368 18.8783 3.39401 18.807 3.35806C17.0027 2.54112 15.0202 2.19695 13.0462 2.35795C11.0722 2.51896 9.17164 3.17985 7.52363 4.27836C5.87562 5.37686 4.53438 6.87683 3.62628 8.63695C2.71817 10.3971 2.27309 12.3594 2.33297 14.3391C2.44812 17.279 3.65678 20.0701 5.72221 22.1654C7.78763 24.2608 10.561 25.5096 13.499 25.6671C16.5765 25.8034 19.583 24.717 21.8626 22.645C24.1421 20.573 25.5097 17.6836 25.667 14.6071V12.2741C25.6627 12.1208 25.5999 11.975 25.4915 11.8666C25.3831 11.7581 25.2372 11.6953 25.084 11.6911H14.584C14.5074 11.6911 14.4316 11.7061 14.3609 11.7354C14.2901 11.7647 14.2259 11.8077 14.1717 11.8618C14.1176 11.916 14.0746 11.9802 14.0453 12.051C14.0161 12.1217 14.001 12.1975 14.001 12.2741V15.7741C14.001 15.8506 14.0161 15.9264 14.0453 15.9972C14.0746 16.0679 14.1176 16.1322 14.1717 16.1863C14.2259 16.2404 14.2901 16.2834 14.3609 16.3127C14.4316 16.342 14.5074 16.3571 14.584 16.3571H20.417" fill="#777777"/>
</svg>
