<svg width="24" height="24" viewBox="0 0 24 24" fill="none" xmlns="http://www.w3.org/2000/svg">
<path d="M5 10.9993H16.86L13.23 6.6393C13.0603 6.43508 12.9786 6.1718 13.003 5.90738C13.0274 5.64295 13.1558 5.39904 13.36 5.2293C13.5642 5.05956 13.8275 4.9779 14.0919 5.00228C14.3563 5.02666 14.6003 5.15508 14.77 5.3593L19.77 11.3593C19.8036 11.407 19.8337 11.4572 19.86 11.5093C19.8567 11.5356 19.8616 11.5622 19.8742 11.5855C19.8867 11.6088 19.9062 11.6276 19.93 11.6393C20.0233 11.8702 20.0233 12.1284 19.93 12.3593C19.9333 12.3856 19.9284 12.4122 19.9158 12.4355C19.9033 12.4588 19.8838 12.4776 19.86 12.4893C19.8337 12.5414 19.8036 12.5916 19.77 12.6393L14.77 18.6393C14.686 18.7404 14.5828 18.824 14.4665 18.8852C14.3501 18.9465 14.2229 18.9842 14.0919 18.9963C13.8275 19.0207 13.5642 18.939 13.36 18.7693C13.1558 18.5996 13.0274 18.3556 13.003 18.0912C12.9786 17.8268 13.0603 17.5635 13.23 17.3593L16.86 12.9993H5C4.73478 12.9993 4.48043 12.8939 4.29289 12.7064C4.10536 12.5189 4 12.2645 4 11.9993C4 11.7341 4.10536 11.4797 4.29289 11.2922C4.48043 11.1047 4.73478 10.9993 5 10.9993Z" fill="#F68C20"/>
</svg>
