<svg width="30" height="30" viewBox="0 0 30 30" fill="none" xmlns="http://www.w3.org/2000/svg">
<path d="M23 3H7C5.93913 3 4.92172 3.42143 4.17157 4.17157C3.42143 4.92172 3 5.93913 3 7V23C3 24.0609 3.42143 25.0783 4.17157 25.8284C4.92172 26.5786 5.93913 27 7 27H23C24.0609 27 25.0783 26.5786 25.8284 25.8284C26.5786 25.0783 27 24.0609 27 23V7C27 5.93913 26.5786 4.92172 25.8284 4.17157C25.0783 3.42143 24.0609 3 23 3ZM24.333 23C24.333 23.3535 24.1926 23.6926 23.9426 23.9426C23.6926 24.1926 23.3535 24.333 23 24.333H7C6.64647 24.333 6.30741 24.1926 6.05743 23.9426C5.80744 23.6926 5.667 23.3535 5.667 23V7C5.667 6.64647 5.80744 6.30741 6.05743 6.05743C6.30741 5.80744 6.64647 5.667 7 5.667H23C23.3535 5.667 23.6926 5.80744 23.9426 6.05743C24.1926 6.30741 24.333 6.64647 24.333 7V23Z" fill="#43C8B1"/>
<path d="M17.6992 11.3892L13.9192 16.3892L12.2892 14.2792C12.2084 14.1755 12.108 14.0886 11.9937 14.0237C11.8794 13.9588 11.7534 13.917 11.623 13.9007C11.4925 13.8845 11.3601 13.8941 11.2333 13.929C11.1066 13.9639 10.988 14.0234 10.8842 14.1042C10.7805 14.185 10.6936 14.2854 10.6287 14.3997C10.5638 14.514 10.522 14.64 10.5057 14.7705C10.4895 14.9009 10.4991 15.0333 10.534 15.1601C10.5689 15.2868 10.6284 15.4055 10.7092 15.5092L13.1392 18.6192C13.2334 18.7391 13.3538 18.8358 13.4912 18.902C13.6285 18.9682 13.7792 19.0021 13.9317 19.0011C14.0841 19.0001 14.2343 18.9643 14.3708 18.8964C14.5073 18.8285 14.6265 18.7302 14.7192 18.6092L19.2892 12.6092C19.451 12.397 19.5219 12.1293 19.4862 11.8649C19.4506 11.6004 19.3114 11.361 19.0992 11.1992C18.887 11.0374 18.6193 10.9665 18.3549 11.0022C18.0904 11.0378 17.851 11.177 17.6892 11.3892H17.6992Z" fill="#43C8B1"/>
</svg>
