<svg width="58" height="58" viewBox="0 0 58 58" fill="none" xmlns="http://www.w3.org/2000/svg">
<path d="M53 0H5C2.23858 0 0 2.23858 0 5V53C0 55.7614 2.23858 58 5 58H53C55.7614 58 58 55.7614 58 53V5C58 2.23858 55.7614 0 53 0Z" fill="#CEF6D6"/>
<path d="M38.1001 22.333H34.2001V20.333C34.211 19.4601 33.8748 18.6185 33.2653 17.9935C32.6558 17.3684 31.823 17.0111 30.9501 17H27.0501C26.1771 17.0111 25.3443 17.3684 24.7348 17.9935C24.1254 18.6185 23.7891 19.4601 23.8001 20.333V22.333H19.9001C18.8525 22.3464 17.8532 22.7754 17.1218 23.5255C16.3905 24.2756 15.987 25.2854 16.0001 26.333V37C15.987 38.0476 16.3905 39.0574 17.1218 39.8075C17.8532 40.5576 18.8525 40.9866 19.9001 41H38.1001C39.1476 40.9866 40.1469 40.5576 40.8783 39.8075C41.6096 39.0574 42.0131 38.0476 42.0001 37V26.333C42.0131 25.2854 41.6096 24.2756 40.8783 23.5255C40.1469 22.7754 39.1476 22.3464 38.1001 22.333ZM32.9001 25V38.333H25.1001V25H32.9001ZM26.4001 20.333C26.3989 20.2465 26.4148 20.1606 26.4468 20.0803C26.4788 19.9999 26.5264 19.9267 26.5868 19.8647C26.6471 19.8028 26.7191 19.7533 26.7986 19.7192C26.8781 19.6851 26.9636 19.667 27.0501 19.666H30.9501C31.0366 19.667 31.122 19.6851 31.2015 19.7192C31.281 19.7533 31.353 19.8028 31.4134 19.8647C31.4737 19.9267 31.5213 19.9999 31.5533 20.0803C31.5854 20.1606 31.6013 20.2465 31.6001 20.333V22.333H26.4001V20.333ZM18.6001 37V26.333C18.5958 25.9839 18.7303 25.6473 18.9741 25.3974C19.2179 25.1474 19.5509 25.0045 19.9001 25H22.5001V38.333H19.9001C19.5509 38.3285 19.2179 38.1856 18.9741 37.9356C18.7303 37.6857 18.5958 37.3491 18.6001 37ZM39.4001 37C39.4043 37.3491 39.2698 37.6857 39.026 37.9356C38.7822 38.1856 38.4492 38.3285 38.1001 38.333H35.5001V25H38.1001C38.4492 25.0045 38.7822 25.1474 39.026 25.3974C39.2698 25.6473 39.4043 25.9839 39.4001 26.333V37Z" fill="#5FD46D"/>
</svg>
