<svg width="58" height="58" viewBox="0 0 58 58" fill="none" xmlns="http://www.w3.org/2000/svg">
<path d="M53 0H5C2.23858 0 0 2.23858 0 5V53C0 55.7614 2.23858 58 5 58H53C55.7614 58 58 55.7614 58 53V5C58 2.23858 55.7614 0 53 0Z" fill="#CEF6D6"/>
<path d="M36.9951 25.3687C36.828 25.1619 36.5855 25.0299 36.3211 25.0017C36.0567 24.9736 35.7919 25.0517 35.5851 25.2187C35.3782 25.3858 35.2462 25.6283 35.218 25.8927C35.1899 26.1571 35.268 26.4219 35.4351 26.6287C35.9403 27.3157 36.2128 28.146 36.2128 28.9987C36.2128 29.8514 35.9403 30.6818 35.4351 31.3687C35.3523 31.4712 35.2906 31.5889 35.2533 31.7152C35.2161 31.8415 35.2041 31.9739 35.218 32.1048C35.2462 32.3692 35.3782 32.6117 35.5851 32.7787C35.7919 32.9458 36.0567 33.0239 36.3211 32.9958C36.452 32.9818 36.579 32.9423 36.6946 32.8793C36.8102 32.8163 36.9123 32.7312 36.9951 32.6287C37.7883 31.5848 38.2177 30.3098 38.2177 28.9987C38.2177 27.6877 37.7883 26.4127 36.9951 25.3687V25.3687Z" fill="#5FD46D"/>
<path d="M39.64 19.3292C39.5535 19.2129 39.4374 19.1218 39.3039 19.0653C39.1703 19.0088 39.0241 18.989 38.8804 19.008C38.7366 19.0269 38.6005 19.084 38.4862 19.1731C38.3718 19.2623 38.2834 19.3804 38.23 19.5152C38.0578 19.8285 37.9786 20.1844 38.0017 20.5412C38.0247 20.8979 38.149 21.2407 38.36 21.5292C40.0953 23.6293 41.0306 26.2762 41 29.0002C41.0306 31.7243 40.0953 34.3712 38.36 36.4712C38.1413 36.7485 38.0153 37.0875 38 37.4402C37.9724 37.8037 38.0516 38.1673 38.228 38.4862C38.2996 38.6326 38.4089 38.7573 38.5445 38.8476C38.6801 38.938 38.8373 38.9906 39 39.0002C39.1244 38.9961 39.2463 38.9644 39.3569 38.9076C39.4676 38.8507 39.5643 38.77 39.64 38.6712C41.8671 35.9456 43.0574 32.5196 43 29.0002C43.0574 25.4809 41.8671 22.0549 39.64 19.3292V19.3292Z" fill="#5FD46D"/>
<path d="M29 17.165C28.859 17.0495 28.6823 16.9863 28.5 16.9863C28.3177 16.9863 28.141 17.0495 28 17.165L21.52 23.1H16.52C15.968 23.1 15.52 23.7 15.52 24.433V33.578C15.52 34.314 15.968 34.911 16.52 34.911H21.52L27.93 40.777C28.0873 40.917 28.2895 40.9962 28.5 41C29.052 41 29.5 40.4 29.5 39.667V18.338C29.5104 18.1174 29.4708 17.8974 29.3842 17.6943C29.2977 17.4912 29.1663 17.3102 29 17.165V17.165ZM27.53 37.165L22.4 32.468C22.2458 32.3226 22.042 32.2414 21.83 32.241H17.5V25.763H21.83C22.042 25.7626 22.2458 25.6814 22.4 25.536L27.5 20.87L27.53 37.165Z" fill="#5FD46D"/>
</svg>
