<svg width="58" height="58" viewBox="0 0 58 58" fill="none" xmlns="http://www.w3.org/2000/svg">
<path d="M53 0H5C2.23858 0 0 2.23858 0 5V53C0 55.7614 2.23858 58 5 58H53C55.7614 58 58 55.7614 58 53V5C58 2.23858 55.7614 0 53 0Z" fill="#E2DDFF"/>
<path d="M37.533 17H20.467C19.5166 17.0347 18.6186 17.444 17.969 18.1386C17.3194 18.8331 16.9711 19.7565 17 20.707V22.333C17 22.6867 17.1404 23.0258 17.3905 23.2759C17.6406 23.526 17.9798 23.6665 18.3335 23.6665C18.6871 23.6665 19.0263 23.526 19.2764 23.2759C19.5265 23.0258 19.667 22.6867 19.667 22.333V20.707C19.6434 20.4645 19.713 20.2221 19.8616 20.029C20.0101 19.8359 20.2265 19.7065 20.467 19.667H37.533C37.7734 19.7065 37.9898 19.8359 38.1384 20.029C38.2869 20.2221 38.3565 20.4645 38.333 20.707V37.293C38.3565 37.5355 38.2869 37.7779 38.1384 37.971C37.9898 38.1641 37.7734 38.2935 37.533 38.333H35.666C35.3123 38.333 34.9731 38.4735 34.723 38.7236C34.473 38.9737 34.3325 39.3128 34.3325 39.6665C34.3325 40.0202 34.473 40.3593 34.723 40.6094C34.9731 40.8595 35.3123 41 35.666 41H37.533C38.4833 40.9653 39.3813 40.556 40.0309 39.8614C40.6805 39.1669 41.0289 38.2435 41 37.293V20.707C41.0289 19.7565 40.6805 18.8331 40.0309 18.1386C39.3813 17.444 38.4833 17.0347 37.533 17Z" fill="#5444A5"/>
<path d="M17.8599 34.0002C17.7263 34.0159 17.5972 34.0581 17.4801 34.1244C17.3631 34.1907 17.2605 34.2796 17.1783 34.3861C17.0961 34.4926 17.036 34.6144 17.0015 34.7445C16.967 34.8745 16.9589 35.0101 16.9775 35.1433C16.9962 35.2765 17.0413 35.4047 17.1101 35.5202C17.179 35.6358 17.2702 35.7364 17.3785 35.8163C17.4868 35.8961 17.6099 35.9535 17.7406 35.985C17.8714 36.0166 18.0071 36.0218 18.1399 36.0002C18.525 35.9463 18.9173 35.9834 19.2854 36.1085C19.6535 36.2335 19.9873 36.443 20.2599 36.7202C20.6255 37.0844 20.8704 37.5521 20.9616 38.06C21.0528 38.5679 20.9859 39.0915 20.7699 39.5602C20.6572 39.8002 20.6445 40.0752 20.7345 40.3246C20.8245 40.574 21.0099 40.7774 21.2499 40.8902C21.3823 40.9485 21.5252 40.9792 21.6699 40.9802C21.8612 40.9806 22.0486 40.9263 22.2099 40.8235C22.3712 40.7207 22.4996 40.5738 22.5799 40.4002C22.9268 39.6628 23.0679 38.8454 22.9883 38.0344C22.9087 37.2234 22.6113 36.4491 22.1276 35.7932C21.644 35.1374 20.992 34.6246 20.2407 34.3089C19.4895 33.9933 18.6668 33.8866 17.8599 34.0002V34.0002Z" fill="#5444A5"/>
<path d="M17.8601 30.0796C17.5995 30.122 17.3659 30.2647 17.2092 30.4772C17.0526 30.6897 16.9854 30.9551 17.022 31.2165C17.0586 31.478 17.1961 31.7147 17.4051 31.876C17.614 32.0373 17.8779 32.1104 18.1401 32.0796C19.1367 31.9422 20.1519 32.0562 21.0932 32.4111C22.0346 32.7661 22.8723 33.3507 23.5301 34.1119C24.188 34.8731 24.6451 35.7867 24.8599 36.7695C25.0747 37.7524 25.0404 38.7734 24.7601 39.7396C24.7203 39.8669 24.7063 40.001 24.7191 40.1338C24.7319 40.2666 24.7711 40.3955 24.8345 40.5129C24.8979 40.6303 24.9841 40.7339 25.0881 40.8175C25.1921 40.9011 25.3118 40.963 25.4401 40.9996C25.5328 41.0142 25.6273 41.0142 25.7201 40.9996C25.9432 41.0085 26.1629 40.9424 26.3441 40.8119C26.5254 40.6814 26.6577 40.494 26.7201 40.2796C27.1036 38.9919 27.1566 37.6283 26.8742 36.3147C26.5918 35.0011 25.9831 33.7798 25.1043 32.7634C24.2254 31.7471 23.1048 30.9685 21.8457 30.4994C20.5866 30.0304 19.2297 29.886 17.9001 30.0796H17.8601Z" fill="#5444A5"/>
<path d="M18 38.9092C18.5523 38.9092 19 38.4615 19 37.9092C19 37.3569 18.5523 36.9092 18 36.9092C17.4477 36.9092 17 37.3569 17 37.9092C17 38.4615 17.4477 38.9092 18 38.9092Z" fill="#5444A5"/>
</svg>
