<svg width="58" height="58" viewBox="0 0 58 58" fill="none" xmlns="http://www.w3.org/2000/svg">
<path d="M53 0H5C2.23858 0 0 2.23858 0 5V53C0 55.7614 2.23858 58 5 58H53C55.7614 58 58 55.7614 58 53V5C58 2.23858 55.7614 0 53 0Z" fill="#E2DDFF"/>
<path d="M39.667 30.573H34.253L37.32 27.28C37.5684 27.0302 37.7079 26.6923 37.7079 26.34C37.7079 25.9877 37.5684 25.6498 37.32 25.4L31.733 20.253C31.6083 20.132 31.4595 20.0386 31.2964 19.9789C31.1332 19.9191 30.9594 19.8943 30.786 19.906C30.611 19.9102 30.4385 19.9488 30.2784 20.0197C30.1183 20.0906 29.9738 20.1923 29.853 20.319L27.427 22.987V18.333C27.427 18.1579 27.3925 17.9844 27.3254 17.8227C27.2584 17.6609 27.1601 17.5139 27.0362 17.3901C26.9123 17.2663 26.7653 17.1681 26.6034 17.1012C26.4416 17.0343 26.2681 16.9999 26.093 17H18.333C17.9795 17 17.6404 17.1404 17.3904 17.3904C17.1404 17.6404 17 17.9795 17 18.333V35.787C17 37.1696 17.5492 38.4955 18.5269 39.4731C19.5045 40.4508 20.8304 41 22.213 41H39.667C40.0205 41 40.3596 40.8596 40.6096 40.6096C40.8596 40.3596 41 40.0205 41 39.667V31.907C41.0001 31.7319 40.9657 31.5584 40.8988 31.3966C40.8319 31.2347 40.7337 31.0877 40.6099 30.9638C40.4861 30.8399 40.3391 30.7416 40.1773 30.6746C40.0156 30.6075 39.8421 30.573 39.667 30.573V30.573ZM30.893 23.12L34.453 26.44L27.426 33.987V26.84L30.893 23.12ZM24.76 26.333V30.333H19.667V26.333H24.76ZM24.76 19.666V23.666H19.667V19.666H24.76ZM19.667 35.787V33H24.76V35.787C24.7667 36.1257 24.7058 36.4623 24.5808 36.7771C24.4559 37.0919 24.2694 37.3787 24.0323 37.6205C23.7951 37.8624 23.5121 38.0546 23.1998 38.1857C22.8875 38.3169 22.5522 38.3845 22.2135 38.3845C21.8748 38.3845 21.5395 38.3169 21.2272 38.1857C20.9149 38.0546 20.6319 37.8624 20.3947 37.6205C20.1576 37.3787 19.9711 37.0919 19.8462 36.7771C19.7212 36.4623 19.6603 36.1257 19.667 35.787V35.787ZM38.334 38.334H27.013L31.76 33.24H38.333L38.334 38.334Z" fill="#5444A5"/>
</svg>
