<svg width="28" height="28" viewBox="0 0 28 28" fill="none" xmlns="http://www.w3.org/2000/svg">
<path d="M19.908 3.95441C19.9081 3.8768 19.8929 3.79992 19.8634 3.72817C19.8338 3.65642 19.7904 3.59119 19.7356 3.53622C19.6808 3.48125 19.6157 3.4376 19.544 3.40778C19.4724 3.37796 19.3956 3.36254 19.318 3.36241H16.363C14.875 3.28853 13.4182 3.80661 12.311 4.80345C11.2038 5.80029 10.5362 7.19485 10.454 8.68241V11.8734H7.49896C7.34256 11.8734 7.19254 11.9354 7.08176 12.0458C6.97099 12.1562 6.90849 12.306 6.90796 12.4624V15.5354C6.90796 15.6922 6.97022 15.8425 7.08106 15.9533C7.19189 16.0641 7.34222 16.1264 7.49896 16.1264H10.454V24.0454C10.454 24.2022 10.5162 24.3525 10.6271 24.4633C10.7379 24.5741 10.8882 24.6364 11.045 24.6364H14.591C14.7477 24.6364 14.898 24.5741 15.0089 24.4633C15.1197 24.3525 15.182 24.2022 15.182 24.0454V16.1274H18.282C18.4133 16.1293 18.5415 16.0873 18.6464 16.0082C18.7512 15.9291 18.8267 15.8172 18.861 15.6904L19.712 12.6174C19.7355 12.5301 19.7387 12.4385 19.7214 12.3498C19.704 12.261 19.6664 12.1774 19.6117 12.1055C19.5569 12.0335 19.4863 11.9751 19.4054 11.9347C19.3245 11.8943 19.2354 11.873 19.145 11.8724H15.181V8.68241C15.2103 8.3898 15.3477 8.11865 15.5663 7.9219C15.7848 7.72515 16.0689 7.61694 16.363 7.61841H19.318C19.4745 7.61815 19.6246 7.55576 19.7352 7.44496C19.8458 7.33415 19.908 7.18398 19.908 7.02741V3.95441Z" fill="#777777"/>
</svg>
