<svg width="58" height="58" viewBox="0 0 58 58" fill="none" xmlns="http://www.w3.org/2000/svg">
<path d="M53 0H5C2.23858 0 0 2.23858 0 5V53C0 55.7614 2.23858 58 5 58H53C55.7614 58 58 55.7614 58 53V5C58 2.23858 55.7614 0 53 0Z" fill="#BBF0FF"/>
<path d="M19.5 34.3737C19.2651 34.3713 19.0385 34.2863 18.86 34.1337C17.834 33.3262 17.0004 32.3009 16.4193 31.1318C15.8382 29.9627 15.5242 28.679 15.5 27.3737C15.5242 26.0683 15.8382 24.7847 16.4193 23.6155C17.0004 22.4464 17.834 21.4211 18.86 20.6137C18.9568 20.5113 19.0741 20.4306 19.2043 20.3767C19.3345 20.3229 19.4745 20.2971 19.6154 20.3012C19.7562 20.3053 19.8945 20.339 20.0214 20.4003C20.1482 20.4615 20.2607 20.5489 20.3515 20.6566C20.4422 20.7644 20.5091 20.8901 20.5479 21.0255C20.5867 21.161 20.5964 21.3031 20.5764 21.4425C20.5565 21.5819 20.5073 21.7156 20.4321 21.8347C20.3569 21.9538 20.2573 22.0557 20.14 22.1337C19.3419 22.7594 18.6916 23.5534 18.2353 24.4591C17.779 25.3648 17.5279 26.3599 17.5 27.3737C17.5279 28.3874 17.779 29.3826 18.2353 30.2883C18.6916 31.1939 19.3419 31.9879 20.14 32.6137C20.2975 32.7447 20.4108 32.9211 20.4643 33.1189C20.5178 33.3167 20.5089 33.5261 20.4389 33.7187C20.3688 33.9112 20.2411 34.0775 20.0731 34.1947C19.905 34.3119 19.7049 34.3744 19.5 34.3737Z" fill="#18AFED"/>
<path d="M29 21C29.3378 21.0052 29.6737 21.0522 30 21.14V17C30 16.7348 29.8946 16.4804 29.7071 16.2929C29.5196 16.1054 29.2652 16 29 16C28.7348 16 28.4804 16.1054 28.2929 16.2929C28.1054 16.4804 28 16.7348 28 17V21.14C28.3263 21.0522 28.6622 21.0052 29 21Z" fill="#18AFED"/>
<path d="M29 35.0004C28.6622 34.9952 28.3263 34.9481 28 34.8604V40.0004C28 40.2656 28.1054 40.5199 28.2929 40.7075C28.4804 40.895 28.7348 41.0004 29 41.0004C29.2652 41.0004 29.5196 40.895 29.7071 40.7075C29.8946 40.5199 30 40.2656 30 40.0004V34.8604C29.6737 34.9481 29.3378 34.9952 29 35.0004Z" fill="#18AFED"/>
<path d="M34.493 32.5533C34.2881 32.5541 34.088 32.4916 33.92 32.3744C33.7519 32.2572 33.6242 32.0909 33.5542 31.8984C33.4842 31.7058 33.4753 31.4964 33.5288 31.2986C33.5823 31.1008 33.6955 30.9244 33.853 30.7933C34.3472 30.4065 34.7503 29.9158 35.0337 29.3559C35.3171 28.796 35.4739 28.1806 35.493 27.5533C35.4739 26.9261 35.3171 26.3107 35.0337 25.7508C34.7503 25.1909 34.3472 24.7001 33.853 24.3133C33.7357 24.2354 33.6362 24.1335 33.561 24.0144C33.4858 23.8953 33.4366 23.7616 33.4166 23.6222C33.3966 23.4827 33.4063 23.3406 33.4451 23.2052C33.4839 23.0698 33.5508 22.9441 33.6416 22.8363C33.7323 22.7286 33.8448 22.6412 33.9717 22.58C34.0985 22.5187 34.2369 22.4849 34.3777 22.4809C34.5185 22.4768 34.6586 22.5026 34.7887 22.5564C34.9189 22.6103 35.0362 22.691 35.133 22.7933C35.8545 23.3623 36.4406 24.0845 36.8487 24.9077C37.2569 25.731 37.477 26.6346 37.493 27.5533C37.477 28.4721 37.2569 29.3757 36.8487 30.1989C36.4406 31.0222 35.8545 31.7444 35.133 32.3133C34.9545 32.466 34.7279 32.551 34.493 32.5533V32.5533Z" fill="#18AFED"/>
<path d="M23.5071 32.5533C23.2722 32.551 23.0456 32.466 22.8671 32.3133C22.1456 31.7444 21.5595 31.0222 21.1514 30.1989C20.7432 29.3757 20.5232 28.4721 20.5071 27.5533C20.5232 26.6346 20.7432 25.731 21.1514 24.9077C21.5595 24.0845 22.1456 23.3623 22.8671 22.7933C22.9639 22.691 23.0812 22.6103 23.2114 22.5564C23.3415 22.5026 23.4816 22.4768 23.6224 22.4809C23.7632 22.4849 23.9016 22.5187 24.0285 22.58C24.1553 22.6412 24.2678 22.7286 24.3585 22.8363C24.4493 22.9441 24.5162 23.0698 24.555 23.2052C24.5938 23.3406 24.6035 23.4827 24.5835 23.6222C24.5636 23.7616 24.5144 23.8953 24.4391 24.0144C24.3639 24.1335 24.2644 24.2354 24.1471 24.3133C23.6529 24.7001 23.2498 25.1909 22.9664 25.7508C22.683 26.3107 22.5262 26.9261 22.5071 27.5533C22.5262 28.1806 22.683 28.796 22.9664 29.3559C23.2498 29.9158 23.6529 30.4065 24.1471 30.7933C24.3046 30.9244 24.4179 31.1008 24.4713 31.2986C24.5248 31.4964 24.516 31.7058 24.4459 31.8984C24.3759 32.0909 24.2482 32.2572 24.0801 32.3744C23.9121 32.4916 23.712 32.5541 23.5071 32.5533V32.5533Z" fill="#18AFED"/>
<path d="M38.5001 34.3737C38.2952 34.3744 38.0951 34.3119 37.9271 34.1947C37.759 34.0775 37.6313 33.9112 37.5612 33.7187C37.4912 33.5261 37.4824 33.3167 37.5359 33.1189C37.5893 32.9211 37.7026 32.7447 37.8601 32.6137C38.6582 31.9879 39.3085 31.1939 39.7648 30.2883C40.2211 29.3826 40.4722 28.3874 40.5001 27.3737C40.4722 26.3599 40.2211 25.3648 39.7648 24.4591C39.3085 23.5534 38.6582 22.7594 37.8601 22.1337C37.7428 22.0557 37.6433 21.9538 37.568 21.8347C37.4928 21.7156 37.4436 21.5819 37.4237 21.4425C37.4037 21.3031 37.4134 21.161 37.4522 21.0255C37.491 20.8901 37.5579 20.7644 37.6487 20.6566C37.7394 20.5489 37.8519 20.4615 37.9787 20.4003C38.1056 20.339 38.244 20.3053 38.3848 20.3012C38.5256 20.2971 38.6657 20.3229 38.7958 20.3767C38.926 20.4306 39.0433 20.5113 39.1401 20.6137C40.1661 21.4211 40.9997 22.4464 41.5808 23.6155C42.1619 24.7847 42.4759 26.0683 42.5001 27.3737C42.4759 28.679 42.1619 29.9627 41.5808 31.1318C40.9997 32.3009 40.1661 33.3262 39.1401 34.1337C38.9616 34.2863 38.735 34.3713 38.5001 34.3737Z" fill="#18AFED"/>
<path d="M29 28.7266C28.8022 28.7266 28.6089 28.6679 28.4444 28.558C28.28 28.4482 28.1518 28.292 28.0761 28.1092C28.0004 27.9265 27.9806 27.7255 28.0192 27.5315C28.0578 27.3375 28.153 27.1593 28.2929 27.0195C28.4327 26.8796 28.6109 26.7844 28.8049 26.7458C28.9989 26.7072 29.2 26.727 29.3827 26.8027C29.5654 26.8784 29.7216 27.0065 29.8315 27.171C29.9414 27.3354 30 27.5288 30 27.7266C30 27.9918 29.8946 28.2461 29.7071 28.4337C29.5196 28.6212 29.2652 28.7266 29 28.7266Z" fill="#18AFED"/>
</svg>
