<svg width="24" height="24" viewBox="0 0 24 24" fill="none" xmlns="http://www.w3.org/2000/svg">
<path d="M17.5598 21.0002C17.3999 21.0008 17.2421 20.9631 17.0998 20.8902L11.9998 18.2202L6.89979 20.8902C6.73418 20.9773 6.54746 21.0162 6.36086 21.0024C6.17426 20.9887 5.99526 20.9228 5.84422 20.8124C5.69317 20.702 5.57613 20.5514 5.5064 20.3778C5.43668 20.2041 5.41706 20.0144 5.44979 19.8302L6.44979 14.2002L2.32979 10.2002C2.19792 10.071 2.10502 9.90731 2.06169 9.72784C2.01836 9.54837 2.02634 9.36034 2.08473 9.18518C2.14311 9.01003 2.24955 8.85482 2.39189 8.73724C2.53424 8.61966 2.70676 8.54446 2.88979 8.5202L8.58979 7.6902L11.0998 2.5602C11.1817 2.39113 11.3095 2.24855 11.4687 2.14878C11.6279 2.04901 11.8119 1.99609 11.9998 1.99609C12.1876 1.99609 12.3717 2.04901 12.5309 2.14878C12.6901 2.24855 12.8179 2.39113 12.8998 2.5602L15.4398 7.6802L21.1398 8.5102C21.3228 8.53446 21.4953 8.60966 21.6377 8.72724C21.78 8.84482 21.8865 9.00003 21.9448 9.17518C22.0032 9.35034 22.0112 9.53837 21.9679 9.71784C21.9246 9.89731 21.8317 10.061 21.6998 10.1902L17.5798 14.1902L18.5798 19.8202C18.6088 19.9677 18.6039 20.1199 18.5653 20.2652C18.5268 20.4105 18.4557 20.5451 18.3574 20.6588C18.2591 20.7725 18.1362 20.8624 17.998 20.9215C17.8598 20.9807 17.7099 21.0076 17.5598 21.0002ZM11.9998 16.1002C12.1601 16.0962 12.3187 16.1341 12.4598 16.2102L16.2298 18.2102L15.5098 14.0002C15.4819 13.8395 15.4937 13.6743 15.5442 13.5192C15.5948 13.364 15.6825 13.2236 15.7998 13.1102L18.7998 10.1802L14.5998 9.5602C14.4458 9.5292 14.3012 9.46233 14.1779 9.36504C14.0545 9.26775 13.9558 9.14276 13.8898 9.0002L11.9998 5.2502L10.1098 9.0002C10.0374 9.14391 9.93148 9.26803 9.80091 9.36204C9.67034 9.45605 9.51902 9.51717 9.35979 9.5402L5.15979 10.1602L8.15979 13.0902C8.27706 13.2036 8.3648 13.344 8.41535 13.4992C8.4659 13.6543 8.47772 13.8195 8.44979 13.9802L7.72979 18.1402L11.4998 16.1402C11.6595 16.0808 11.8326 16.067 11.9998 16.1002Z" fill="#F3B23A"/>
</svg>
