<svg width="58" height="58" viewBox="0 0 58 58" fill="none" xmlns="http://www.w3.org/2000/svg">
<path d="M53 0H5C2.23858 0 0 2.23858 0 5V53C0 55.7614 2.23858 58 5 58H53C55.7614 58 58 55.7614 58 53V5C58 2.23858 55.7614 0 53 0Z" fill="#FAE0D0"/>
<path d="M29.0001 40.0954C28.838 40.0964 28.6772 40.0653 28.5271 40.0041C28.3769 39.9428 28.2403 39.8526 28.1251 39.7384L18.5461 30.1464C17.9472 29.5472 17.4721 28.8359 17.148 28.0531C16.824 27.2702 16.6573 26.4313 16.6575 25.584C16.6577 24.7368 16.8247 23.8979 17.1491 23.1152C17.4735 22.3325 17.9489 21.6214 18.5481 21.0224C19.1473 20.4235 19.8587 19.9484 20.6415 19.6243C21.4243 19.3003 22.2633 19.1336 23.1105 19.1338C23.9578 19.134 24.7967 19.301 25.5794 19.6254C26.362 19.9498 27.0732 20.4252 27.6721 21.0244L29.0031 22.3554L30.3341 21.0244C30.9331 20.4255 31.6441 19.9504 32.4267 19.6262C33.2093 19.302 34.0481 19.1352 34.8951 19.1352C35.7422 19.1352 36.5809 19.302 37.3635 19.6262C38.1461 19.9504 38.8572 20.4255 39.4561 21.0244C40.0551 21.6234 40.5302 22.3345 40.8543 23.117C41.1785 23.8996 41.3453 24.7384 41.3453 25.5854C41.3453 26.4325 41.1785 27.2712 40.8543 28.0538C40.5302 28.8364 40.0551 29.5475 39.4561 30.1464L29.8721 39.7384C29.7569 39.8526 29.6203 39.9428 29.4702 40.0041C29.32 40.0653 29.1593 40.0964 28.9971 40.0954H29.0001ZM23.1071 21.6034C22.5854 21.6012 22.0683 21.7025 21.586 21.9014C21.1037 22.1004 20.6656 22.393 20.2971 22.7624C19.5525 23.5109 19.1345 24.5237 19.1345 25.5794C19.1345 26.6352 19.5525 27.648 20.2971 28.3964L28.9971 37.1124L37.6971 28.3964C38.4417 27.648 38.8598 26.6352 38.8598 25.5794C38.8598 24.5237 38.4417 23.5109 37.6971 22.7624C36.9373 22.0448 35.9318 21.645 34.8866 21.645C33.8415 21.645 32.8359 22.0448 32.0761 22.7624L29.8721 24.9814C29.7575 25.097 29.6211 25.1888 29.4708 25.2514C29.3206 25.314 29.1594 25.3462 28.9966 25.3462C28.8338 25.3462 28.6727 25.314 28.5224 25.2514C28.3721 25.1888 28.2357 25.097 28.1211 24.9814L25.9181 22.7624C25.5495 22.3929 25.1113 22.1002 24.6288 21.9012C24.1462 21.7023 23.629 21.6011 23.1071 21.6034Z" fill="#EF8543"/>
</svg>
