<svg width="58" height="58" viewBox="0 0 58 58" fill="none" xmlns="http://www.w3.org/2000/svg">
<path d="M53 0H5C2.23858 0 0 2.23858 0 5V53C0 55.7614 2.23858 58 5 58H53C55.7614 58 58 55.7614 58 53V5C58 2.23858 55.7614 0 53 0Z" fill="#E2DDFF"/>
<path d="M38.1001 17H19.9001C18.8525 17.0134 17.8532 17.4424 17.1218 18.1925C16.3905 18.9426 15.987 19.9524 16.0001 21V31.667C15.987 32.7146 16.3905 33.7244 17.1218 34.4745C17.8532 35.2246 18.8525 35.6536 19.9001 35.667H27.7001V38.334H22.5001C22.1555 38.3474 21.8294 38.4936 21.5903 38.7422C21.3513 38.9907 21.2177 39.3221 21.2177 39.667C21.2177 40.0119 21.3513 40.3433 21.5903 40.5918C21.8294 40.8404 22.1555 40.9866 22.5001 41H35.5001C35.8474 40.9905 36.1773 40.8458 36.4196 40.5968C36.662 40.3477 36.7975 40.014 36.7975 39.6665C36.7975 39.319 36.662 38.9853 36.4196 38.7362C36.1773 38.4872 35.8474 38.3425 35.5001 38.333H30.3001V35.667H38.1001C39.1476 35.6536 40.1469 35.2246 40.8783 34.4745C41.6096 33.7244 42.0131 32.7146 42.0001 31.667V21C42.0131 19.9524 41.6096 18.9426 40.8783 18.1925C40.1469 17.4424 39.1476 17.0134 38.1001 17V17ZM39.4001 31.667C39.4043 32.0161 39.2698 32.3527 39.026 32.6026C38.7822 32.8526 38.4492 32.9955 38.1001 33H19.9001C19.5509 32.9955 19.2179 32.8526 18.9741 32.6026C18.7303 32.3527 18.5958 32.0161 18.6001 31.667V21C18.5958 20.6509 18.7303 20.3143 18.9741 20.0644C19.2179 19.8144 19.5509 19.6715 19.9001 19.667H38.1001C38.4492 19.6715 38.7822 19.8144 39.026 20.0644C39.2698 20.3143 39.4043 20.6509 39.4001 21V31.667Z" fill="#EF8543"/>
</svg>
