<svg width="30" height="30" viewBox="0 0 30 30" fill="none" xmlns="http://www.w3.org/2000/svg">
<path d="M24.8271 23.2246L20.9921 19.4006C22.2293 17.8242 22.9006 15.8776 22.8981 13.8736C22.8981 12.0888 22.3689 10.3441 21.3773 8.86015C20.3857 7.37616 18.9764 6.21953 17.3274 5.53652C15.6785 4.85352 13.8641 4.67481 12.1136 5.02301C10.3631 5.3712 8.7552 6.23065 7.49317 7.49268C6.23114 8.75471 5.37169 10.3626 5.0235 12.1131C4.6753 13.8636 4.85401 15.678 5.53701 17.3269C6.22002 18.9759 7.37665 20.3852 8.86064 21.3768C10.3446 22.3684 12.0893 22.8976 13.8741 22.8976C15.8781 22.9001 17.8247 22.2288 19.4011 20.9916L23.2251 24.8266C23.3279 24.9411 23.453 25.0335 23.5927 25.098C23.7324 25.1626 23.8838 25.198 24.0377 25.2022C24.1915 25.2063 24.3446 25.179 24.4876 25.122C24.6305 25.0651 24.7604 24.9795 24.8692 24.8707C24.978 24.7619 25.0635 24.632 25.1205 24.4891C25.1775 24.3461 25.2048 24.193 25.2006 24.0392C25.1965 23.8853 25.1611 23.7339 25.0965 23.5942C25.032 23.4545 24.9396 23.3294 24.8251 23.2266L24.8271 23.2246ZM7.1051 13.8726C7.1051 12.534 7.50204 11.2255 8.24572 10.1125C8.98939 8.99952 10.0464 8.13205 11.2831 7.6198C12.5198 7.10754 13.8806 6.97351 15.1935 7.23466C16.5063 7.4958 17.7123 8.14039 18.6588 9.08691C19.6053 10.0334 20.2499 11.2394 20.5111 12.5522C20.7722 13.8651 20.6382 15.2259 20.1259 16.4626C19.6137 17.6993 18.7462 18.7563 17.6332 19.5C16.5202 20.2437 15.2117 20.6406 13.8731 20.6406C12.0781 20.6406 10.3566 19.9276 9.0874 18.6583C7.81816 17.3891 7.1051 15.6676 7.1051 13.8726Z" fill="white"/>
</svg>
