<svg width="28" height="28" viewBox="0 0 28 28" fill="none" xmlns="http://www.w3.org/2000/svg">
<path d="M9.42698 23.333C11.1521 23.3908 12.8713 23.1021 14.483 22.4841C16.0947 21.8662 17.5662 20.9314 18.8105 19.735C20.0547 18.5387 21.0466 17.105 21.7273 15.5188C22.4081 13.9326 22.764 12.2261 22.774 10.5C23.5648 9.52147 24.152 8.39472 24.501 7.18599C24.5271 7.09053 24.5251 6.98954 24.4952 6.8952C24.4652 6.80087 24.4086 6.7172 24.3322 6.65431C24.2558 6.59141 24.1628 6.55197 24.0644 6.54074C23.9661 6.5295 23.8666 6.54695 23.778 6.59099C23.3644 6.79018 22.8988 6.85457 22.4467 6.77509C21.9946 6.69562 21.5788 6.47628 21.258 6.14799C20.8486 5.69934 20.3532 5.33745 19.8014 5.08376C19.2495 4.83007 18.6524 4.68974 18.0453 4.67109C17.4382 4.65243 16.8335 4.75584 16.2671 4.97518C15.7008 5.19452 15.1842 5.52532 14.748 5.94799C14.1496 6.52589 13.711 7.24888 13.475 8.04658C13.2389 8.84428 13.2134 9.68952 13.401 10.5C9.50098 10.733 6.81398 8.87799 4.66698 6.33499C4.60284 6.26122 4.51848 6.20787 4.42433 6.18154C4.33018 6.15521 4.23038 6.15706 4.13728 6.18685C4.04417 6.21665 3.96184 6.27308 3.90047 6.34917C3.8391 6.42527 3.80138 6.51768 3.79198 6.61499C3.38301 8.88352 3.67804 11.2229 4.63745 13.3188C5.59685 15.4148 7.17467 17.167 9.15898 18.34C7.82854 19.8658 5.96022 20.8187 3.94398 21C3.83599 21.018 3.73631 21.0692 3.65889 21.1466C3.58148 21.2241 3.5302 21.3237 3.51224 21.4317C3.49428 21.5397 3.51053 21.6506 3.55871 21.7489C3.6069 21.8473 3.68461 21.928 3.78098 21.98C5.53521 22.8565 7.467 23.3194 9.42798 23.333" fill="#777777"/>
</svg>
