<svg width="28" height="28" viewBox="0 0 28 28" fill="none" xmlns="http://www.w3.org/2000/svg">
<path d="M17.6751 9.79985C16.7808 9.79656 15.8947 9.96969 15.0675 10.3093C14.2402 10.649 13.4881 11.1484 12.8541 11.7791C12.2202 12.4098 11.7169 13.1594 11.373 13.9849C11.0291 14.8104 10.8514 15.6956 10.8501 16.5899V23.4499C10.8501 23.7283 10.9607 23.9954 11.1576 24.1923C11.3545 24.3892 11.6216 24.4999 11.9001 24.4999H14.3501C14.6286 24.4999 14.8956 24.3892 15.0926 24.1923C15.2895 23.9954 15.4001 23.7283 15.4001 23.4499V16.5899C15.3998 16.2718 15.4665 15.9573 15.5959 15.6667C15.7253 15.3762 15.9145 15.1162 16.1512 14.9037C16.3878 14.6913 16.6666 14.531 16.9693 14.4335C17.272 14.336 17.5919 14.3034 17.9081 14.3379C18.4753 14.4091 18.9966 14.6862 19.373 15.1165C19.7495 15.5467 19.9548 16.1002 19.9501 16.6719V23.4499C19.9501 23.7283 20.0607 23.9954 20.2576 24.1923C20.4545 24.3892 20.7216 24.4999 21.0001 24.4999H23.4501C23.7286 24.4999 23.9956 24.3892 24.1926 24.1923C24.3895 23.9954 24.5001 23.7283 24.5001 23.4499V16.5899C24.4988 15.6956 24.3211 14.8104 23.9772 13.9849C23.6333 13.1594 23.13 12.4098 22.4961 11.7791C21.8621 11.1484 21.11 10.649 20.2827 10.3093C19.4555 9.96969 18.5693 9.79656 17.6751 9.79985Z" fill="#777777"/>
<path d="M7.85 10.8496H4.4C3.90294 10.8496 3.5 11.2526 3.5 11.7496V23.5996C3.5 24.0967 3.90294 24.4996 4.4 24.4996H7.85C8.34706 24.4996 8.75 24.0967 8.75 23.5996V11.7496C8.75 11.2526 8.34706 10.8496 7.85 10.8496Z" fill="#777777"/>
<path d="M6.125 8.75C7.57475 8.75 8.75 7.57475 8.75 6.125C8.75 4.67525 7.57475 3.5 6.125 3.5C4.67525 3.5 3.5 4.67525 3.5 6.125C3.5 7.57475 4.67525 8.75 6.125 8.75Z" fill="#777777"/>
</svg>
