<svg width="24" height="24" viewBox="0 0 24 24" fill="none" xmlns="http://www.w3.org/2000/svg">
<path d="M19 10.9993H7.13998L10.77 6.6393C10.9397 6.43508 11.0214 6.1718 10.997 5.90738C10.9726 5.64295 10.8442 5.39904 10.64 5.2293C10.4358 5.05956 10.1725 4.9779 9.90805 5.00228C9.64363 5.02666 9.39972 5.15508 9.22998 5.3593L4.22998 11.3593C4.19634 11.407 4.16626 11.4572 4.13998 11.5093C4.14331 11.5356 4.13836 11.5622 4.12581 11.5855C4.11326 11.6088 4.09374 11.6276 4.06998 11.6393C3.97667 11.8702 3.97667 12.1284 4.06998 12.3593C4.06664 12.3856 4.07159 12.4122 4.08414 12.4355C4.0967 12.4588 4.11622 12.4776 4.13998 12.4893C4.16626 12.5414 4.19634 12.5916 4.22998 12.6393L9.22998 18.6393C9.31402 18.7404 9.41716 18.824 9.53351 18.8852C9.64985 18.9465 9.77712 18.9842 9.90805 18.9963C10.039 19.0084 10.171 18.9946 10.2966 18.9556C10.4222 18.9167 10.5389 18.8533 10.64 18.7693C10.7411 18.6853 10.8247 18.5821 10.8859 18.4658C10.9472 18.3494 10.9849 18.2222 10.997 18.0912C11.0091 17.9603 10.9952 17.8283 10.9563 17.7027C10.9173 17.5771 10.854 17.4604 10.77 17.3593L7.13998 12.9993H19C19.2652 12.9993 19.5195 12.8939 19.7071 12.7064C19.8946 12.5189 20 12.2645 20 11.9993C20 11.7341 19.8946 11.4797 19.7071 11.2922C19.5195 11.1047 19.2652 10.9993 19 10.9993Z" fill="#91929A"/>
</svg>
