<svg width="58" height="58" viewBox="0 0 58 58" fill="none" xmlns="http://www.w3.org/2000/svg">
<path d="M53 0H5C2.23858 0 0 2.23858 0 5V53C0 55.7614 2.23858 58 5 58H53C55.7614 58 58 55.7614 58 53V5C58 2.23858 55.7614 0 53 0Z" fill="#BBF0FF"/>
<path d="M38.1001 22.333H34.2001V20.333C34.211 19.4601 33.8748 18.6185 33.2653 17.9935C32.6558 17.3684 31.823 17.0111 30.9501 17H27.0501C26.1771 17.0111 25.3443 17.3684 24.7348 17.9935C24.1254 18.6185 23.7891 19.4601 23.8001 20.333V22.333H19.9001C18.8525 22.3464 17.8532 22.7754 17.1218 23.5255C16.3905 24.2756 15.987 25.2854 16.0001 26.333V37C15.987 38.0476 16.3905 39.0574 17.1218 39.8075C17.8532 40.5576 18.8525 40.9866 19.9001 41H38.1001C39.1476 40.9866 40.1469 40.5576 40.8783 39.8075C41.6096 39.0574 42.0131 38.0476 42.0001 37V26.333C42.0131 25.2854 41.6096 24.2756 40.8783 23.5255C40.1469 22.7754 39.1476 22.3464 38.1001 22.333ZM26.4001 20.333C26.3989 20.2465 26.4148 20.1606 26.4468 20.0803C26.4788 19.9999 26.5264 19.9267 26.5868 19.8647C26.6471 19.8028 26.7191 19.7533 26.7986 19.7192C26.8781 19.6851 26.9636 19.667 27.0501 19.666H30.9501C31.0366 19.667 31.122 19.6851 31.2015 19.7192C31.281 19.7533 31.353 19.8028 31.4134 19.8647C31.4737 19.9267 31.5213 19.9999 31.5533 20.0803C31.5854 20.1606 31.6013 20.2465 31.6001 20.333V22.333H26.4001V20.333ZM39.4001 37C39.4043 37.3491 39.2698 37.6857 39.026 37.9356C38.7822 38.1856 38.4492 38.3285 38.1001 38.333H19.9001C19.5509 38.3285 19.2179 38.1856 18.9741 37.9356C18.7303 37.6857 18.5958 37.3491 18.6001 37V26.333C18.5958 25.9839 18.7303 25.6473 18.9741 25.3974C19.2179 25.1474 19.5509 25.0045 19.9001 25H38.1001C38.4492 25.0045 38.7822 25.1474 39.026 25.3974C39.2698 25.6473 39.4043 25.9839 39.4001 26.333V37Z" fill="#2DB7EF"/>
<path d="M29 28.2061C28.3078 28.2061 27.6311 28.4113 27.0555 28.7959C26.4799 29.1805 26.0313 29.7271 25.7664 30.3667C25.5015 31.0062 25.4322 31.7099 25.5673 32.3889C25.7023 33.0678 26.0356 33.6914 26.5251 34.1809C27.0146 34.6704 27.6383 35.0038 28.3172 35.1388C28.9961 35.2739 29.6999 35.2045 30.3394 34.9396C30.9789 34.6747 31.5256 34.2261 31.9101 33.6506C32.2947 33.075 32.5 32.3983 32.5 31.7061C32.5 30.7778 32.1313 29.8876 31.4749 29.2312C30.8185 28.5748 29.9283 28.2061 29 28.2061V28.2061ZM29 33.2061C28.7033 33.2061 28.4133 33.1181 28.1666 32.9533C27.92 32.7884 27.7277 32.5542 27.6142 32.2801C27.5007 32.006 27.4709 31.7044 27.5288 31.4134C27.5867 31.1224 27.7296 30.8552 27.9393 30.6454C28.1491 30.4356 28.4164 30.2928 28.7074 30.2349C28.9983 30.177 29.2999 30.2067 29.574 30.3202C29.8481 30.4338 30.0824 30.626 30.2472 30.8727C30.412 31.1194 30.5 31.4094 30.5 31.7061C30.5 32.1039 30.342 32.4854 30.0607 32.7667C29.7794 33.048 29.3978 33.2061 29 33.2061V33.2061Z" fill="#2DB7EF"/>
</svg>
