<svg width="115" height="42" viewBox="0 0 115 42" fill="none" xmlns="http://www.w3.org/2000/svg">
<path d="M14 35C21.732 35 28 28.732 28 21C28 13.268 21.732 7 14 7C6.26801 7 0 13.268 0 21C0 28.732 6.26801 35 14 35Z" fill="#F56962"/>
<path d="M13.6938 13C15.8484 13 17.9148 13.8559 19.4384 15.3795C20.9619 16.903 21.8178 18.9694 21.8178 21.124C21.8178 23.291 25.9998 28.277 25.9998 28.277C25.9998 28.277 16.0138 29.248 13.6938 29.248C11.5392 29.248 9.47283 28.3921 7.94929 26.8685C6.42574 25.345 5.56982 23.2786 5.56982 21.124C5.56982 18.9694 6.42574 16.903 7.94929 15.3795C9.47283 13.8559 11.5392 13 13.6938 13V13Z" fill="white"/>
<path d="M42.512 31.196C41.2053 31.196 40.0293 30.972 38.984 30.524C37.9387 30.0573 37.1173 29.404 36.52 28.564C35.9227 27.724 35.624 26.744 35.624 25.624H39.04C39.1147 26.464 39.4413 27.1547 40.02 27.696C40.6173 28.2373 41.448 28.508 42.512 28.508C43.6133 28.508 44.472 28.2467 45.088 27.724C45.704 27.1827 46.012 26.492 46.012 25.652C46.012 24.9987 45.816 24.4667 45.424 24.056C45.0507 23.6453 44.5747 23.328 43.996 23.104C43.436 22.88 42.652 22.6373 41.644 22.376C40.3747 22.04 39.3387 21.704 38.536 21.368C37.752 21.0133 37.08 20.472 36.52 19.744C35.96 19.016 35.68 18.0453 35.68 16.832C35.68 15.712 35.96 14.732 36.52 13.892C37.08 13.052 37.864 12.408 38.872 11.96C39.88 11.512 41.0467 11.288 42.372 11.288C44.2573 11.288 45.7973 11.764 46.992 12.716C48.2053 13.6493 48.8773 14.9373 49.008 16.58H45.48C45.424 15.8707 45.088 15.264 44.472 14.76C43.856 14.256 43.044 14.004 42.036 14.004C41.1213 14.004 40.3747 14.2373 39.796 14.704C39.2173 15.1707 38.928 15.8427 38.928 16.72C38.928 17.3173 39.1053 17.812 39.46 18.204C39.8333 18.5773 40.3 18.876 40.86 19.1C41.42 19.324 42.1853 19.5667 43.156 19.828C44.444 20.1827 45.4893 20.5373 46.292 20.892C47.1133 21.2467 47.804 21.7973 48.364 22.544C48.9427 23.272 49.232 24.252 49.232 25.484C49.232 26.4733 48.9613 27.4067 48.42 28.284C47.8973 29.1613 47.1227 29.8707 46.096 30.412C45.088 30.9347 43.8933 31.196 42.512 31.196ZM59.1024 23.3L66.2144 31H61.9024L56.1904 24.364V31H52.9984V10.28H56.1904V22.32L61.7904 15.572H66.2144L59.1024 23.3ZM70.1263 13.528C69.5477 13.528 69.0623 13.332 68.6703 12.94C68.2783 12.548 68.0823 12.0627 68.0823 11.484C68.0823 10.9053 68.2783 10.42 68.6703 10.028C69.0623 9.636 69.5477 9.44 70.1263 9.44C70.6863 9.44 71.1623 9.636 71.5543 10.028C71.9463 10.42 72.1423 10.9053 72.1423 11.484C72.1423 12.0627 71.9463 12.548 71.5543 12.94C71.1623 13.332 70.6863 13.528 70.1263 13.528ZM71.6943 15.572V31H68.5023V15.572H71.6943ZM79.0772 10.28V31H75.8852V10.28H79.0772ZM86.46 10.28V31H83.268V10.28H86.46ZM97.1188 18.176H94.2628V31H91.0428V18.176H89.2228V15.572H91.0428V14.48C91.0428 12.7067 91.5094 11.4187 92.4428 10.616C93.3948 9.79467 94.8788 9.384 96.8948 9.384V12.044C95.9241 12.044 95.2428 12.2307 94.8508 12.604C94.4588 12.9587 94.2628 13.584 94.2628 14.48V15.572H97.1188V18.176ZM113.836 15.572L104.372 38.252H101.068L104.204 30.748L98.1277 15.572H101.684L106.024 27.332L110.532 15.572H113.836Z" fill="#302D3A"/>
</svg>